name analog
datacolumns 19
datarows 42
range 0.159 0.1795
endheader
time	ground_force_vx	ground_force_vy	ground_force_vz	ground_force_px	ground_force_py	ground_force_pz	l_ground_force_vx	l_ground_force_vy	l_ground_force_vz	l_ground_force_px	l_ground_force_py	l_ground_force_pz	ground_torque_x	ground_torque_y	ground_torque_z	l_ground_torque_x	l_ground_torque_y	l_ground_torque_z
0.159	-0.0	-0.0	-0.0	-19.70594787597656	32.41325378417969	-505.5960388183594	-5.726577758789063	-31.17755508422852	-494.6291198730469	-0.0	-0.0	-0.0	-0.0	-0.0	-0.0	103764.6328125	19361.0546875	-17072.27734375
0.1595	-0.0	-0.0	-0.0	-20.05253028869629	32.30483627319336	-508.02978515625	-5.756228446960449	-30.058744430541992	-492.3814697265625	-0.0	-0.0	-0.0	-0.0	-0.0	-0.0	104118.890625	19604.673828125	-16986.158203125
0.16	-0.0	-0.0	-0.0	-20.59796524047852	32.59186935424805	-508.6574096679688	-4.839737415313721	-28.88119125366211	-490.053955078125	-0.0	-0.0	-0.0	-0.0	-0.0	-0.0	104059.4296875	19292.9375	-16770.95703125
0.1605	-0.0	-0.0	-0.0	-20.89496612548828	33.45396423339844	-511.0513916015625	-4.514908790588379	-28.20436668395996	-487.9963684082031	-0.0	-0.0	-0.0	-0.0	-0.0	-0.0	103447.984375	19110.31640625	-16602.255859375
0.161	-0.0	-0.0	-0.0	-20.96446990966797	33.88919448852539	-514.2718505859375	-3.795001745223999	-26.91863822937012	-487.8418273925781	-0.0	-0.0	-0.0	-0.0	-0.0	-0.0	103413.4921875	18878.2109375	-16555.53125
0.1615	-0.0	-0.0	-0.0	-20.716455459594727	33.66096115112305	-515.2119140625	-3.094250440597534	-26.28099250793457	-486.5218811035156	-0.0	-0.0	-0.0	-0.0	-0.0	-0.0	103898.7265625	18283.697265625	-16284.353515625
0.162	-0.0	-0.0	-0.0	-20.459793090820312	33.61064910888672	-518.811279296875	-1.893299460411072	-25.83105087280273	-487.6882934570313	-0.0	-0.0	-0.0	-0.0	-0.0	-0.0	104095.4453125	17729.041015625	-16033.7978515625
0.1625	-0.0	-0.0	-0.0	-20.114288330078125	32.978248596191406	-520.7088012695312	-0.4158380627632141	-24.765941619873047	-486.55364990234375	-0.0	-0.0	-0.0	-0.0	-0.0	-0.0	104549.6015625	17248.673828125	-15557.9619140625
0.163	-0.0	-0.0	-0.0	-19.11048889160156	32.354339599609375	-522.905517578125	1.6354857683181765	-24.6112117767334	-488.6599731445313	-0.0	-0.0	-0.0	-0.0	-0.0	-0.0	104459.9140625	16619.123046875	-14866.7724609375
0.1635	-0.0	-0.0	-0.0	-19.00183868408203	31.41259765625	-524.4420776367188	3.586972951889038	-24.699308395385746	-487.2639465332031	-0.0	-0.0	-0.0	-0.0	-0.0	-0.0	104552.6875	16248.6630859375	-14259.2392578125
0.164	-0.0	-0.0	-0.0	-18.47397804260254	30.591033935546875	-526.7442626953125	5.392129421234131	-24.91411590576172	-486.4439086914063	-0.0	-0.0	-0.0	-0.0	-0.0	-0.0	104733.4609375	15915.875	-13583.6533203125
0.1645	-0.0	-0.0	-0.0	-18.020523071289062	29.35531997680664	-527.8235473632812	7.185573577880859	-24.64175033569336	-483.8012390136719	-0.0	-0.0	-0.0	-0.0	-0.0	-0.0	104099.2734375	15250.3544921875	-13059.7333984375
0.165	-0.0	-0.0	-0.0	-17.682886123657227	28.845443725585938	-526.91748046875	8.554458618164062	-23.77756118774414	-481.9796752929688	-0.0	-0.0	-0.0	-0.0	-0.0	-0.0	103607.390625	14718.767578125	-12567.017578125
0.1655	-0.0	-0.0	-0.0	-17.931312561035156	26.873023986816406	-524.6495971679688	9.314632415771484	-23.53150749206543	-478.9868469238281	-0.0	-0.0	-0.0	-0.0	-0.0	-0.0	103440.296875	14693.7109375	-12223.12890625
0.166	-0.0	-0.0	-0.0	-17.84210205078125	27.24193382263184	-526.7179565429688	10.417118072509766	-23.22860336303711	-479.08642578125	-0.0	-0.0	-0.0	-0.0	-0.0	-0.0	103291.578125	14160.384765625	-11976.41796875
0.1665	-0.0	-0.0	-0.0	-17.12248420715332	27.44623565673828	-527.274169921875	11.494529724121094	-22.345386505126957	-476.3683776855469	-0.0	-0.0	-0.0	-0.0	-0.0	-0.0	103448.5078125	13928.35546875	-11530.48046875
0.167	-0.0	-0.0	-0.0	-16.0009822845459	28.34910011291504	-530.1759033203125	12.57237720489502	-21.22348976135254	-475.0171508789063	-0.0	-0.0	-0.0	-0.0	-0.0	-0.0	103229.7890625	13564.228515625	-11190.5185546875
0.1675	-0.0	-0.0	-0.0	-14.68194580078125	29.75593376159668	-532.7449340820312	13.11569595336914	-20.25254821777344	-474.6450805664063	-0.0	-0.0	-0.0	-0.0	-0.0	-0.0	103095.8671875	13331.6484375	-10935.560546875
0.168	-0.0	-0.0	-0.0	-12.775938987731934	31.149112701416016	-534.0433349609375	13.717694282531738	-19.109819412231445	-472.1267700195313	-0.0	-0.0	-0.0	-0.0	-0.0	-0.0	103190.921875	13369.900390625	-10625.685546875
0.1685	-0.0	-0.0	-0.0	-12.527007102966309	32.889122009277344	-532.948486328125	14.40850067138672	-17.99437713623047	-472.5123901367188	-0.0	-0.0	-0.0	-0.0	-0.0	-0.0	102868.9296875	13019.6337890625	-10354.8798828125
0.169	-0.0	-0.0	-0.0	-11.827559471130373	34.24477767944336	-531.7407836914062	14.725990295410156	-16.906536102294922	-470.0314025878906	-0.0	-0.0	-0.0	-0.0	-0.0	-0.0	102577.7578125	12990.4462890625	-10270.037109375
0.1695	-0.0	-0.0	-0.0	-11.719757080078123	34.61991500854492	-532.2256469726562	14.796114921569824	-16.479145050048828	-468.1957092285156	-0.0	-0.0	-0.0	-0.0	-0.0	-0.0	102156.7734375	12804.2197265625	-10280.8701171875
0.17	-0.0	-0.0	-0.0	-12.065817832946776	35.36997985839844	-530.4026489257812	13.912928581237791	-16.976194381713867	-467.0343017578125	-0.0	-0.0	-0.0	-0.0	-0.0	-0.0	101801.21875	13184.048828125	-10364.4501953125
0.1705	-0.0	-0.0	-0.0	-12.772076606750488	35.50740432739258	-530.8152465820312	12.914835929870604	-17.292661666870117	-467.3543090820313	-0.0	-0.0	-0.0	-0.0	-0.0	-0.0	101637.375	13284.0849609375	-10881.9111328125
0.171	-0.0	-0.0	-0.0	-12.50797176361084	34.422821044921875	-533.228515625	11.621112823486328	-17.825979232788086	-466.466552734375	-0.0	-0.0	-0.0	-0.0	-0.0	-0.0	101952.515625	13651.169921875	-11174.5673828125
0.1715	-0.0	-0.0	-0.0	-11.64972686767578	32.92302322387695	-532.93701171875	10.287482261657717	-18.23373413085937	-469.3924255371094	-0.0	-0.0	-0.0	-0.0	-0.0	-0.0	102006.796875	13915.2763671875	-11779.0771484375
0.17200000000000001	-0.0	-0.0	-0.0	-10.576581954956056	31.76715469360352	-532.3984375	8.797903060913086	-19.05927085876465	-469.7420654296875	-0.0	-0.0	-0.0	-0.0	-0.0	-0.0	102221.34375	14240.2861328125	-12077.9658203125
0.17250000000000001	-0.0	-0.0	-0.0	-9.545524597167969	31.675540924072266	-532.5953369140625	8.090903282165527	-19.238374710083008	-469.95806884765625	-0.0	-0.0	-0.0	-0.0	-0.0	-0.0	102180.890625	14411.751953125	-12185.76171875
0.17300000000000001	-0.0	-0.0	-0.0	-8.474998474121094	31.031553268432617	-532.314453125	7.522256374359131	-19.7840576171875	-470.7911071777344	-0.0	-0.0	-0.0	-0.0	-0.0	-0.0	102316.53125	14416.2451171875	-12423.5341796875
0.17350000000000002	-0.0	-0.0	-0.0	-8.349374771118164	31.03557014465332	-534.7072143554688	7.594772815704346	-20.52483558654785	-470.2433166503906	-0.0	-0.0	-0.0	-0.0	-0.0	-0.0	102171.09375	14848.533203125	-12524.095703125
0.17400000000000002	-0.0	-0.0	-0.0	-8.724498748779297	31.47970390319824	-532.1043701171875	7.5058369636535645	-21.28552627563477	-469.05267333984375	-0.0	-0.0	-0.0	-0.0	-0.0	-0.0	101883.515625	14913.564453125	-12376.5107421875
0.17450000000000002	-0.0	-0.0	-0.0	-9.206754684448242	31.94364547729492	-532.3806762695312	6.7420196533203125	-22.116233825683597	-470.3024291992188	-0.0	-0.0	-0.0	-0.0	-0.0	-0.0	101534.1484375	15011.7314453125	-12714.66796875
0.17500000000000002	-0.0	-0.0	-0.0	-9.509464263916016	31.960845947265625	-534.07568359375	6.405119895935059	-22.593488693237305	-468.0750427246094	-0.0	-0.0	-0.0	-0.0	-0.0	-0.0	101373.4453125	15388.6904296875	-12703.3916015625
0.17550000000000002	-0.0	-0.0	-0.0	-8.956960678100586	31.676607131958008	-533.446044921875	5.925754070281982	-23.65179252624512	-467.6521911621094	-0.0	-0.0	-0.0	-0.0	-0.0	-0.0	101061.8046875	15664.1416015625	-12923.36328125
0.176	-0.0	-0.0	-0.0	-8.332404136657715	31.57041549682617	-535.1356811523438	5.3404741287231445	-23.42299461364746	-465.4892883300781	-0.0	-0.0	-0.0	-0.0	-0.0	-0.0	100836.765625	15910.4541015625	-13054.470703125
0.1765	-0.0	-0.0	-0.0	-7.957581520080566	31.409547805786133	-534.7850952148438	4.612960815429688	-23.22860336303711	-466.6058044433594	-0.0	-0.0	-0.0	-0.0	-0.0	-0.0	100549.6328125	16359.314453125	-13351.4375
0.177	-0.0	-0.0	-0.0	-7.743220329284668	31.320297241210938	-534.008056640625	3.7614827156066895	-23.546899795532227	-467.5836791992188	-0.0	-0.0	-0.0	-0.0	-0.0	-0.0	100686.65625	16475.59375	-13666.5966796875
0.1775	-0.0	-0.0	-0.0	-7.975734233856201	31.303016662597656	-534.92919921875	2.945558547973633	-23.15830421447754	-467.1631164550781	-0.0	-0.0	-0.0	-0.0	-0.0	-0.0	100902.9375	16395.244140625	-13934.080078125
0.178	-0.0	-0.0	-0.0	-7.315261840820312	30.321983337402344	-534.5781860351562	1.6671024560928345	-22.663673400878903	-466.117431640625	-0.0	-0.0	-0.0	-0.0	-0.0	-0.0	100875.125	16580.56640625	-14059.173828125
0.1785	-0.0	-0.0	-0.0	-6.602687358856201	30.07326316833496	-535.2158813476562	1.757712960243225	-22.41522026062012	-466.6086730957031	-0.0	-0.0	-0.0	-0.0	-0.0	-0.0	100676.8828125	16852.96875	-14236.6279296875
0.179	-0.0	-0.0	-0.0	-5.422874927520752	30.070632934570312	-535.1371459960938	1.2581013441085815	-22.11654281616211	-465.7786865234375	-0.0	-0.0	-0.0	-0.0	-0.0	-0.0	100262.859375	16802.208984375	-14308.6337890625
0.1795	-0.0	-0.0	-0.0	-5.529269695281982	30.46512794494629	-533.5093994140625	0.7461914420127869	-22.16874313354492	-462.1330871582031	-0.0	-0.0	-0.0	-0.0	-0.0	-0.0	99907.109375	17004.65234375	-14534.66015625
